<svg xmlns="http://www.w3.org/2000/svg" viewBox="0 0 1970 870"><defs><style>.cls-1{isolation:isolate;}.cls-2{fill:#005495;}.cls-3,.cls-6{fill:#00a2ff;}.cls-4{fill:#545871;}.cls-5{fill:#f5a124;}.cls-5,.cls-6{fill-rule:evenodd;mix-blend-mode:multiply;}</style></defs><g class="cls-1"><g id="Layer_1" data-name="Layer 1"><path class="cls-2" d="M1383.1,19.89c39.68,0,72.91,13.91,99.7,41.38q41.71,42.23,41.72,99.71V341.06c0,7.8-2.71,13.9-8.14,18a24.1,24.1,0,0,1-17,6.79c-6.44,0-11.87-2.38-17.29-7.13-5.09-4.74-7.46-10.17-7.46-17.63V161c0-25.44-8.81-46.81-26.45-64.44q-27-27.48-65.11-27.47c-25.44,0-46.8,9.15-65.12,27.46-18,18-27.13,39-27.13,64.44V341.05a24.87,24.87,0,0,1-7.12,17.64c-4.75,5.08-10.51,7.12-17.63,7.12a22.74,22.74,0,0,1-16.28-6.11c-5.43-4.74-8.14-10.51-8.14-18.65V161c0-25.1-8.81-46.46-26.79-64.44-18-18.31-39.67-27.47-64.77-27.47-25.44,0-46.8,9.49-64.78,27.47-17.63,18-27.13,39-27.13,64.43V341.05q0,10.68-7.12,17.29a23.27,23.27,0,0,1-17.29,7.12c-7.8,0-13.91-2.37-18.32-7.46a25.87,25.87,0,0,1-6.78-17.3V158.59c0-38.66,14.58-71.56,42-98.35,27.81-27.13,61-40.7,99.37-40.7,29.51,0,56.3,8.15,80.38,24.76a189.92,189.92,0,0,1,20.34,16.62,118.09,118.09,0,0,1,16.28,19,157.43,157.43,0,0,1,16.62-20A126.09,126.09,0,0,1,1303.4,44c24.42-16.28,51.21-24.76,80-24.76Z"/><path class="cls-3" d="M1048.68,601.58c0,33.2-12,61.69-35.8,85.48-23.55,23.78-52,35.32-85.48,35.32-33.21,0-61.46-11.54-85.25-35.33s-35.79-52-35.79-85.48,12-61.7,35.8-85.48,52-35.79,85.24-35.79a119.48,119.48,0,0,1,63.11,17.43,92.76,92.76,0,0,1,12.25,8.48,138.43,138.43,0,0,1,10.6,9.41v-113c0-4.47,1.88-8.71,5.42-12.71a17.25,17.25,0,0,1,12.24-4.95,18,18,0,0,1,12.72,4.95,17,17,0,0,1,4.94,12.48V601.58ZM927.4,687.05c23.78,0,44-8.47,60.75-25.19s25-37,25-60.75c0-24-8.48-44-25-61-16.49-16.72-36.5-25.19-60.76-25.19-23.78,0-44,8.47-60.75,25.19s-25.2,37-25.2,60.76,8.48,44,25.19,60.75c17.19,17,37.45,25.2,60.76,25.2Z"/><path class="cls-2" d="M397,19.86c39.68,0,72.92,13.91,99.71,41.38q41.71,42.23,41.71,99.71V341c0,7.8-2.71,13.9-8.14,18a24.08,24.08,0,0,1-16.95,6.79c-6.45,0-11.87-2.38-17.3-7.13-5.09-4.74-7.46-10.17-7.46-17.63V161c0-25.44-8.82-46.81-26.46-64.44Q435.19,69,397,69c-25.43,0-46.8,9.15-65.11,27.47-18,18-27.14,39-27.14,64.43V341a24.88,24.88,0,0,1-7.13,17.64c-4.74,5.09-10.51,7.12-17.63,7.12a22.74,22.74,0,0,1-16.28-6.11c-5.43-4.74-8.14-10.51-8.14-18.65V160.94c0-25.1-8.82-46.46-26.79-64.44C210.84,78.19,189.14,69,164,69c-25.43,0-46.8,9.49-64.77,27.47-17.64,18-27.14,39-27.14,64.43V341q0,10.68-7.12,17.29a23.31,23.31,0,0,1-17.3,7.12c-7.8,0-13.9-2.37-18.31-7.46a25.87,25.87,0,0,1-6.79-17.29V158.56C22.62,119.9,37.2,87,64.68,60.21c27.81-27.13,61-40.7,99.36-40.69,29.51,0,56.3,8.14,80.38,24.76a189.71,189.71,0,0,1,20.35,16.61,118.59,118.59,0,0,1,16.28,19,156.52,156.52,0,0,1,16.61-20,126.56,126.56,0,0,1,19.67-15.94c24.42-16.28,51.21-24.76,80-24.76Z"/><path class="cls-3" d="M699.38,689.67a19,19,0,0,1,4.54,12.89,21.59,21.59,0,0,1-1.67,6.44,17.93,17.93,0,0,1-5.26,6.45,18.17,18.17,0,0,1-4.29,2.38c-1.67.72-3.58.72-6,.72a15.56,15.56,0,0,1-6.92-1.2,21.61,21.61,0,0,1-5.49-4.05L565.49,597.54l-6.69,4.77-6.2,4.77-9.07,6.68-10,7.4v80.2A17.34,17.34,0,0,1,529,713.77c-3.11,3.58-7.4,5.25-12.89,5.25-5.25,0-9.55-1.43-12.89-5a12.26,12.26,0,0,1-3.58-5.49,22.42,22.42,0,0,1-1.19-7.16V396.57c0-4.54,1.91-8.83,5.49-12.89a27.51,27.51,0,0,1,5.49-3.58,17.48,17.48,0,0,1,13.85,0,42.91,42.91,0,0,1,5.49,3.34A17.47,17.47,0,0,1,534,396.33v180L568.59,551,603,525.93l36-26.49,36.28-26.73a16.23,16.23,0,0,1,10.26-3.1h2.63a12.79,12.79,0,0,1,6.21,2.15,26.61,26.61,0,0,1,4.77,4.29c2.62,4.06,4.06,7.88,4.06,11.46v2.63a25.92,25.92,0,0,1-2.15,6.44,15.33,15.33,0,0,1-4.54,5.25L670,521.16l-24.82,18.38L621.58,557.2,596,575.82Z"/><path class="cls-4" d="M1241.48,677.58v.35a11.39,11.39,0,0,1,2,3.89,20.48,20.48,0,0,1,.53,5c-.18,4.07-2,7.08-5.13,8.85l.17-.18c-16.28,13.45-35,20.18-56.45,20.17-24.6,0-46-8.49-63.71-26.19s-26.37-39.11-26.36-63.71c0-25,8.85-46.19,26.37-63.53,17.87-17.52,39.11-26.37,63.71-26.37a88.85,88.85,0,0,1,29.73,5.14,92.27,92.27,0,0,1,26.19,14.33,15.9,15.9,0,0,1,3.71,4.07,11.62,11.62,0,0,1,.89,10.62,20.43,20.43,0,0,1-2.12,4.42,14.26,14.26,0,0,1-3.54,3,11.78,11.78,0,0,1-4.78,1.42h-1.77a13.34,13.34,0,0,1-8-2.83,71.66,71.66,0,0,0-19.11-10.45,61.31,61.31,0,0,0-20.88-3.71c-17.52,0-32.56,6.19-45.13,18.75S1119,608.2,1119,625.72c0,17.7,6.19,32.74,18.76,45.13q18.59,18.58,45.13,18.58a62,62,0,0,0,40.35-14.15,12.18,12.18,0,0,1,7.6-3h1.77a13.34,13.34,0,0,1,9,5.31Z"/><path class="cls-4" d="M1449.71,703.42a13,13,0,0,1-12.92,13.1,12.23,12.23,0,0,1-13.27-13.1V689.79c-2.48,2.3-5.31,4.78-8.49,7.26s-6,4.42-8.5,6a90.17,90.17,0,0,1-22.3,10.08,86,86,0,0,1-24.59,3.36c-25,0-46.19-8.85-63.89-26.54-17.7-17.88-26.37-39.11-26.37-63.71s8.68-45.84,26.37-63.71S1334.69,536,1359.64,536s46.54,8.68,64.06,26.55c17.7,17.88,26.37,39.11,26.37,63.71Zm-44.59-31.85c12.56-12.57,18.76-27.61,18.76-45.13s-6.19-32.74-18.76-45.66c-12.39-12.39-27.61-18.58-45.48-18.58-17.7,0-32.92,6-45.31,18.58-12.74,12.92-18.75,28.31-18.76,45.48,0,17.34,6,32.38,18.76,45.3,12.57,12.57,27.61,18.76,45.31,18.76C1377.51,690.32,1392.73,684.13,1405.12,671.57Z"/><path class="cls-4" d="M1560.3,535.66c20.35,0,37.69,7.43,52.38,21.94,14.51,14.51,22.12,31.86,22.12,52.74a13.62,13.62,0,0,1-13.27,12.92,14.06,14.06,0,0,1-9-3.19c-2.65-3.36-3.89-6.54-3.89-9.73a47.07,47.07,0,0,0-14.33-34.51,47.16,47.16,0,0,0-34.16-14c-13.45,0-24.77,4.6-34.15,14a47,47,0,0,0-14.34,34.51V705a12.66,12.66,0,0,1-3.72,9.38c-2.83,2.3-5.66,3.71-9.2,3.71a12.51,12.51,0,0,1-9.56-3.89,17.43,17.43,0,0,1-2.65-4.25,12.64,12.64,0,0,1-1.06-5.13V608.92c0-20.71,8-37.87,22.3-52,14.69-14.16,32-21.59,52.38-21.59Z"/><path class="cls-4" d="M1830.78,624v1.6a6,6,0,0,1-.53,2.12l.18-.18c-1.77,6.37-6,9.56-12.56,9.56H1677.53a61.45,61.45,0,0,0,6.19,18.76c3,5.84,7.43,11,12.57,16.11,12.38,11.86,26.89,18.05,44.24,18.05a61,61,0,0,0,15.39-2,77.79,77.79,0,0,0,14.34-5.3h-.18a66,66,0,0,0,12.57-8.5,60,60,0,0,0,10.44-11.68q2.92-4,9-5.31h2a13.76,13.76,0,0,1,7.26,2.13,12.2,12.2,0,0,1,5.84,8.49,4.77,4.77,0,0,1,.35,1.24v1.42A12.86,12.86,0,0,1,1815,678a87.42,87.42,0,0,1-14.33,15.93,94.87,94.87,0,0,1-17.88,12.21,89.78,89.78,0,0,1-41.94,10.44c-24.6,0-46.19-8.5-64.06-26.55s-26.37-39.47-26.37-63.89v-2.65c0-24.25,9.74-45.31,27.43-62.47,17.52-17.17,38.76-25.49,63-25.48,24.59,0,45.65,8.31,63.17,25.48a91.62,91.62,0,0,1,19.82,28.67,84.8,84.8,0,0,1,7.26,34.51v.35ZM1803,611.41a63.54,63.54,0,0,0-7.43-17.52A68.77,68.77,0,0,0,1783.89,579a60.32,60.32,0,0,0-20.18-12.21,65.09,65.09,0,0,0-23.36-4.25c-16.1,0-30.43,5.66-43.18,17v-.18a63.56,63.56,0,0,0-19.11,32.39h124.76Z"/><path class="cls-4" d="M1131.6,822.91c.35,4.35-7.47,4.35-7.12,0v-2.32a16.83,16.83,0,0,1-12.71,5.78c-5.87,0-10.59-1.86-14-5.6s-5.25-8.71-5.25-14.85a20.17,20.17,0,0,1,6.23-15.29c4.09-3.92,9.33-5.87,15.65-5.87a17.29,17.29,0,0,1,10.13,2.84V766.79c-.35-4.35,7.47-4.35,7.12,0Zm-7.12-28.37a18.59,18.59,0,0,0-9.87-3.11,14.57,14.57,0,0,0-10.31,3.91,13.59,13.59,0,0,0-4.27,10.4c0,8.63,5.33,14,13.07,14a14.85,14.85,0,0,0,11.38-5.33Z"/><path class="cls-4" d="M1188.42,805a3.31,3.31,0,0,1-3,2.85h-28.1c.63,7.47,6,12,14,12a19.24,19.24,0,0,0,9.78-2.4,4.09,4.09,0,0,1,2-.53,3.11,3.11,0,0,1,2.4,1.16,2.44,2.44,0,0,1,.54,1.6,2.62,2.62,0,0,1-1.07,2.4,24.08,24.08,0,0,1-14.14,4.44c-6.49,0-11.65-1.86-15.56-5.69s-5.87-8.89-5.87-15.2a21.47,21.47,0,0,1,5.51-15c3.65-3.92,8.72-5.87,15.12-5.87a18.54,18.54,0,0,1,13.25,5.07,17.61,17.61,0,0,1,5.34,13.25A11.17,11.17,0,0,1,1188.42,805Zm-7.29-2.93c-.36-6.67-4.72-10.67-11.56-10.67-7.12,0-11.92,4.36-12.72,10.67Z"/><path class="cls-4" d="M1242.66,822.91c.36,4.36-7.47,4.36-7.11,0V820.6a16.9,16.9,0,0,1-12.72,5.78c-5.87,0-10.58-1.87-14-5.61s-5.25-8.71-5.25-14.85a20.17,20.17,0,0,1,6.23-15.29c4.09-3.91,9.34-5.87,15.65-5.87a17.28,17.28,0,0,1,10.14,2.85V766.8c-.36-4.36,7.47-4.36,7.11,0Zm-7.11-28.37a18.68,18.68,0,0,0-9.87-3.11,14.61,14.61,0,0,0-10.32,3.91,13.64,13.64,0,0,0-4.27,10.41c0,8.62,5.34,14,13.07,14a14.9,14.9,0,0,0,11.39-5.34Z"/><path class="cls-4" d="M1268.71,766.35a4.23,4.23,0,0,1,4.36,4.27,4.32,4.32,0,0,1-4.36,4.63,4.44,4.44,0,0,1-4.62-4.63A4.36,4.36,0,0,1,1268.71,766.35Zm3.38,56.56c.36,4.36-7.47,4.36-7.11,0V788.59c-.36-4.36,7.47-4.36,7.11,0Z"/><path class="cls-4" d="M1313,791.43a13.14,13.14,0,0,0-9.61,4,13.85,13.85,0,0,0-4.09,10.23,13.53,13.53,0,0,0,4.18,10.32,14.44,14.44,0,0,0,10.23,3.91,13.43,13.43,0,0,0,8.53-2.76A4.33,4.33,0,0,1,1325,816a2.7,2.7,0,0,1,2,.89,3,3,0,0,1,1,2.22,2.94,2.94,0,0,1-1,2.31,19.89,19.89,0,0,1-13.88,5.16c-6.4,0-11.56-2-15.47-5.78s-6-8.81-6-15.12a20.76,20.76,0,0,1,5.78-14.85,19.35,19.35,0,0,1,14.5-6,26.14,26.14,0,0,1,13,3.12,3.2,3.2,0,0,1,1.87,3,3,3,0,0,1-.45,1.6,3.14,3.14,0,0,1-2.93,1.6,3.35,3.35,0,0,1-1.69-.36A19.15,19.15,0,0,0,1313,791.43Z"/><path class="cls-4" d="M1356.66,801.22c4.27,0,7.56.88,10,2.57,0-8.53-1.69-12.62-9.07-12.62a22.1,22.1,0,0,0-8,1.6,3.7,3.7,0,0,1-1.33.26,2.83,2.83,0,0,1-2.76-1.77,3.11,3.11,0,0,1-.26-1.25,2.79,2.79,0,0,1,1.77-2.85,28.79,28.79,0,0,1,11-2.4c11,0,15.39,5.43,15.38,16.37v22a3.39,3.39,0,0,1-6.75,0v-2.67c-3.12,3.83-7.39,5.78-12.81,5.78-7.38,0-12.27-4.8-12.27-12.36C1341.54,806,1347.76,801.21,1356.66,801.22Zm10,8.44a15.12,15.12,0,0,0-9-2.66c-4.71,0-8.53,2.31-8.53,6.58,0,3.91,2.67,6.31,7.2,6.31,4,0,7.38-1.69,10.32-5.16Z"/><path class="cls-4" d="M1411.88,818.65a2.86,2.86,0,0,1,3,2.93,3.33,3.33,0,0,1-1.87,2.85c-2.13,1.33-5,2-8.53,2-8.81,0-12.54-5.33-12.54-15.92V777.92c-.36-4.36,7.47-4.36,7.11,0v7.73h11.3a3.34,3.34,0,1,1,0,6.67h-11.3v17.43c0,6.67,2.4,10,7.12,10C1407.88,819.71,1411.17,818.65,1411.88,818.65Z"/><path class="cls-4" d="M1465.85,805a3.3,3.3,0,0,1-3,2.85h-28.1c.62,7.47,6,12,14,12a19.19,19.19,0,0,0,9.78-2.4,4.16,4.16,0,0,1,2-.53,3.1,3.1,0,0,1,2.4,1.15,2.47,2.47,0,0,1,.53,1.6,2.62,2.62,0,0,1-1.06,2.41,24.1,24.1,0,0,1-14.14,4.44c-6.49,0-11.65-1.87-15.56-5.69s-5.87-8.89-5.87-15.21a21.42,21.42,0,0,1,5.51-15c3.65-3.92,8.72-5.87,15.12-5.87a18.54,18.54,0,0,1,13.25,5.07,17.62,17.62,0,0,1,5.33,13.25A11.17,11.17,0,0,1,1465.85,805Zm-7.29-2.93c-.35-6.67-4.71-10.67-11.56-10.67-7.11,0-11.91,4.35-12.71,10.67Z"/><path class="cls-4" d="M1520.1,822.92c.35,4.36-7.47,4.35-7.12,0v-2.31a16.87,16.87,0,0,1-12.71,5.78c-5.87,0-10.59-1.87-14-5.61s-5.25-8.71-5.25-14.85a20.17,20.17,0,0,1,6.23-15.29c4.09-3.92,9.33-5.87,15.65-5.87a17.29,17.29,0,0,1,10.13,2.84v-20.8c-.35-4.36,7.47-4.36,7.12,0ZM1513,794.55a18.59,18.59,0,0,0-9.87-3.11,14.57,14.57,0,0,0-10.31,3.91,13.6,13.6,0,0,0-4.27,10.4c0,8.63,5.33,14,13.07,14a14.86,14.86,0,0,0,11.38-5.34Z"/><path class="cls-4" d="M1587.05,818.65a2.88,2.88,0,0,1,3,2.94,3.35,3.35,0,0,1-1.87,2.84c-2.13,1.34-5,2-8.54,2-8.8,0-12.54-5.34-12.54-15.92V777.92c-.36-4.35,7.47-4.35,7.11,0v7.74h11.29a3.34,3.34,0,1,1,0,6.67h-11.29v17.43c0,6.67,2.4,10,7.11,10C1583.05,819.72,1586.34,818.65,1587.05,818.65Z"/><path class="cls-4" d="M1601.9,805.67a20.31,20.31,0,0,1,6-15c3.91-3.91,9.07-5.87,15.39-5.87s11.47,2,15.47,5.87a20.59,20.59,0,0,1,5.87,15,20.24,20.24,0,0,1-5.87,14.94c-4,4-9.16,6-15.47,6s-11.48-2-15.39-6A20,20,0,0,1,1601.9,805.67Zm21.35,14.23c8.09,0,13.78-5.78,13.78-14.23,0-8.27-5.69-14.23-13.78-14.23-7.92,0-13.79,5.78-13.79,14.23C1609.46,813.94,1615.15,819.9,1623.25,819.9Z"/><path class="cls-4" d="M1697,822.92c.36,4.36-7.47,4.36-7.11,0V766.81c-.36-4.36,7.47-4.36,7.11,0v23.48A19.14,19.14,0,0,1,1710,785c11.12,0,16.63,6,16.63,17.79v20.18c.36,4.36-7.47,4.36-7.11,0v-19.2c0-8.1-3.74-12.1-11.21-12.1a16,16,0,0,0-11.38,5.07Z"/><path class="cls-4" d="M1783.48,805.05a3.31,3.31,0,0,1-3,2.85h-28.1c.62,7.47,6.05,12,14,12a19.19,19.19,0,0,0,9.78-2.4,4.16,4.16,0,0,1,2-.53,3.1,3.1,0,0,1,2.4,1.15,2.47,2.47,0,0,1,.53,1.6,2.59,2.59,0,0,1-1.06,2.4,24,24,0,0,1-14.14,4.45c-6.49,0-11.65-1.87-15.56-5.69s-5.87-8.89-5.87-15.21a21.46,21.46,0,0,1,5.51-15c3.65-3.91,8.72-5.86,15.12-5.86a18.54,18.54,0,0,1,13.25,5.07,17.62,17.62,0,0,1,5.33,13.25A11.23,11.23,0,0,1,1783.48,805.05Zm-7.29-2.93c-.35-6.67-4.71-10.67-11.56-10.67-7.11,0-11.91,4.35-12.71,10.67Z"/><path class="cls-4" d="M1808.38,822.75c.18,4.62-7.29,4.62-7.11,0v-34c-.18-4.63,7.29-4.63,7.11,0v1.6a11.37,11.37,0,0,1,10-5.42,15.45,15.45,0,0,1,3.65.53c1.69.53,2.58,1.51,2.58,2.84,0,.18-.09.54-.18,1.16a3.27,3.27,0,0,1-3.56,2.49c-.36,0-1-.09-1.78-.18a14.46,14.46,0,0,0-2.4-.18c-3.64,0-6.4,1.87-8.36,5.7Z"/><rect class="cls-3" x="737.29" y="470.61" width="35.71" height="251.76" rx="16.57"/><path class="cls-5" d="M857.5,756.71c-17.31,9.3-24.9,35-17,57.31s28.41,32.92,45.71,23.62,24.9-35,17-57.31-28.41-32.92-45.71-23.62"/><path class="cls-5" d="M979,745.87c-26.84,14.5-42,48.28-33.95,75.44s36.4,37.43,63.24,22.92,42-48.28,33.94-75.45-36.4-37.42-63.23-22.91"/><path class="cls-5" d="M762.62,766.75c-15.43,8.34-24.18,27.78-19.53,43.4s20.95,21.53,36.38,13.19,24.19-27.78,19.53-43.41-20.94-21.53-36.38-13.18"/><path class="cls-5" d="M511.15,781.54A17.5,17.5,0,0,1,525.5,797c.5,7.45-5.1,12.62-12.52,11.55a17.48,17.48,0,0,1-14.34-15.44c-.51-7.45,5.1-12.62,12.51-11.55"/><path class="cls-5" d="M585.63,778.08c10,1.34,18.7,10,19.38,19.4S598.12,813.35,588.1,812s-18.69-10-19.38-19.4,6.89-15.87,16.91-14.52"/><path class="cls-5" d="M669.08,774.58c-11.25,6.07-17.62,20.2-14.23,31.56s15.26,15.65,26.51,9.58,17.62-20.19,14.23-31.55-15.26-15.66-26.51-9.59"/><path class="cls-2" d="M848.69,119.68C836.33,87.94,818.52,69,773.18,63.14c-28.51-3.69-32.54,26.66-51,42.17C695.72,127.62,642.7,143,637,204.45c-.73,7.84-.47,22.33-.3,31.48,0,90.09,120.89,101,177.63,41.66,13.56-14.19,56.47-101,34.33-157.91M774.85,364.87c-103.45,0-180.27-77.44-180.26-172.84v-1.24c0-95.4,76.2-171.6,179-171.6C877.08,19.2,953.9,96.64,953.89,192v1.24C953.89,288.68,877.69,364.88,774.85,364.87Z"/><path class="cls-6" d="M774.81,85.8c-29.43,4.71-49.29,33.57-44.35,64.48s32.8,52.14,62.24,47.43,49.29-33.57,44.35-64.47S804.25,81.1,774.81,85.8"/><path class="cls-6" d="M752.33,175.41c-35.09,8.66-62.55,42.88-61.35,76.43s30.62,53.73,65.7,45.07S819.23,254,818,220.47s-30.62-53.73-65.7-45.06"/><path class="cls-6" d="M700.18,189.77c-20.19,5-36,24.67-35.3,44s17.62,30.91,37.8,25.93,36-24.67,35.3-44-17.62-30.91-37.8-25.93"/><path class="cls-6" d="M668.5,210.28c11.09,4.52,18.46,17.06,16.45,28s-12.61,16.15-23.7,11.63-18.46-17.06-16.45-28,12.61-16.15,23.7-11.63"/><path class="cls-6" d="M738.93,170c11.09,4.53,18.46,17.06,16.46,28s-12.62,16.15-23.71,11.63-18.45-17.06-16.45-28,12.62-16.15,23.7-11.63"/><path class="cls-4" d="M1926.05,562.59a19,19,0,0,1-4,12.23q-4,5-12.33,7.44v.21l20.49,28.31h-15.14l-18.74-26.67h-8.65v26.67h-12.61V541.9h21a73.05,73.05,0,0,1,9.68.59,36,36,0,0,1,7.68,1.77,20.07,20.07,0,0,1,9.37,6.88A19.08,19.08,0,0,1,1926.05,562.59Zm-32.13,11a58.39,58.39,0,0,0,7.34-.39,22.14,22.14,0,0,0,5.07-1.16,9.87,9.87,0,0,0,5.28-3.93,11.12,11.12,0,0,0,1.47-5.74,10.16,10.16,0,0,0-1.16-4.92,7.93,7.93,0,0,0-3.94-3.37,16.26,16.26,0,0,0-4.53-1.21,48.91,48.91,0,0,0-6.75-.39h-9v21.11Z"/><path class="cls-4" d="M1898.22,634.14a55.51,55.51,0,1,1,55.52-55.51A55.57,55.57,0,0,1,1898.22,634.14Zm0-106a50.51,50.51,0,1,0,50.52,50.51A50.57,50.57,0,0,0,1898.22,528.12Z"/></g></g></svg>