<svg id="Group_26" data-name="Group 26" xmlns="http://www.w3.org/2000/svg" width="62" height="62" viewBox="0 0 62 62">
  <path id="Path_1799" data-name="Path 1799" d="M62.113,53.313,48.75,42.231a25.471,25.471,0,1,0-6.519,6.519L53.313,62.113a10.388,10.388,0,0,0,.847.847,6.252,6.252,0,1,0,7.953-9.648Zm-53-25.424A18.775,18.775,0,1,1,27.889,46.6,18.779,18.779,0,0,1,9.115,27.889Z" transform="translate(-2.4 -2.4)" fill="#616e7d"/>
  <path id="Path_1800" data-name="Path 1800" d="M37.865,28.784a1.972,1.972,0,0,0-2.8,0l-1.79,1.79-1.79-1.79a1.981,1.981,0,0,0-2.8,2.8l1.79,1.79-1.751,1.751a1.981,1.981,0,1,0,2.8,2.8l1.79-1.79,1.79,1.79a1.981,1.981,0,0,0,2.8-2.8l-1.79-1.79,1.79-1.79A1.961,1.961,0,0,0,37.865,28.784Z" transform="translate(-8.71 -8.762)" fill="#616e7d"/>
</svg>
