<svg xmlns="http://www.w3.org/2000/svg" width="62" height="62" viewBox="0 0 62 62">
  <path id="Path_1804" data-name="Path 1804" d="M65.309,40.227,40.227,65.309a5.955,5.955,0,0,1-8.314,0L6.691,40.227a5.955,5.955,0,0,1,0-8.314L31.773,6.691a5.955,5.955,0,0,1,8.314,0L65.309,31.773A6.13,6.13,0,0,1,65.309,40.227Zm-4.932-6.482L38.255,11.623a3.148,3.148,0,0,0-4.509,0L11.623,33.745a3.148,3.148,0,0,0,0,4.509L33.886,60.518a3.148,3.148,0,0,0,4.509,0L60.659,38.255A3.444,3.444,0,0,0,60.377,33.745ZM30.364,31.209H29.8a3.84,3.84,0,0,1-1.691-.845c-1.127-1.268-.423-2.959.423-4.227A8.87,8.87,0,0,1,36,22.05c4.65,0,8.455,3.523,8.455,7.891a7.611,7.611,0,0,1-3.241,6.2S39.241,37.55,39.241,39.1a2.878,2.878,0,0,1-3.1,2.677,2.974,2.974,0,0,1-3.1-2.677,6.9,6.9,0,0,1,1.127-4.086,5.408,5.408,0,0,1,1.55-1.55c.7-.423,1.55-.423,2.114-1.127a4,4,0,0,0,.986-2.4A2.8,2.8,0,0,0,36,27.264a3.367,3.367,0,0,0-1.973.7c-.564.423-.564.986-.845,1.55a2.747,2.747,0,0,1-1.409,1.409A4.169,4.169,0,0,1,30.364,31.209ZM36,44.455a2.818,2.818,0,1,1-2.818,2.818A2.826,2.826,0,0,1,36,44.455Z" transform="translate(-5 -5)" fill="#616e7d" fill-rule="evenodd"/>
</svg>
